<?xml version="1.0" standalone="no"?><!DOCTYPE svg PUBLIC "-//W3C//DTD SVG 1.1//EN" "http://www.w3.org/Graphics/SVG/1.1/DTD/svg11.dtd"><svg t="1723425294696" class="icon" viewBox="0 0 1024 1024" version="1.1" xmlns="http://www.w3.org/2000/svg" p-id="6198" xmlns:xlink="http://www.w3.org/1999/xlink" width="32" height="32"><path d="M387.925333 463.957333l120.832 348.672 128.085334-348.672zM176.298667 406.698667l104.96-206.677334h179.2L356.864 406.698667zM848.213333 406.698667L732.074667 186.965333l-164.266667 13.056 95.658667 206.677334z" fill="#64EDAC" p-id="6199"></path><path d="M921.941333 403.114667L801.877333 178.773333C790.698667 157.952 769.792 145.066667 747.178667 145.066667H276.821333c-22.613333 0-43.52 12.885333-54.698666 33.706666L102.058667 403.114667c-13.568 25.344-10.154667 56.832 8.448 78.250666l355.84 376.746667c11.776 13.226667 28.416 20.821333 45.653333 20.821333s33.877333-7.594667 45.653333-20.821333l354.901334-375.722667 0.938666-1.024c18.602667-21.418667 22.016-52.906667 8.448-78.250666z m-75.52 3.584H668.245333L575.914667 213.333333h166.997333l103.509333 193.365334z m-415.658666-1.706667L512 237.909333l79.701333 167.082667H430.762667z m166.4 68.266667L510.72 711.082667 424.874667 473.258667h172.288z m-244.906667 0L448.597333 739.84l-253.44-268.288h127.317334l-0.853334 1.706667h30.634667z m317.525333 0h30.208l-0.768-1.706667h129.621334L571.306667 744.277333l98.474666-271.018666zM281.088 213.333333h166.997333L354.048 406.698667H177.578667L281.088 213.333333z" fill="#333C4F" p-id="6200"></path></svg>